PathFileType	4	(X/Y/Z)	Run_200 02
DataRate	CameraRate	NumFrames	NumMarkers	Units	OrigDataRate	OrigDataStartFrame	OrigNumFrames
120	120	8	42	mm	120	37	128
Frame#	Time	LASI			RASI			LPSI			RPSI			RTH1			RTH2			RTH3			LTH1			LTH2			LTH3			RTB1			RTB2			RTB3			LTB1			LTB2			LTB3			RCAL			RTOE			RMT5			LCAL			LTOE			LMT5			LACR			RACR			CLAV			C7			RUA1			RUA2			RUA3			RLEL			RMEL			LUA1			LUA2			LUA3			LLEL			LMEL			RFAsuperior			RFAradius			RFAulna			LFAsuperior			LFAradius			LFAulna			
		X1	Y1	Z1	X2	Y2	Z2	X3	Y3	Z3	X4	Y4	Z4	X5	Y5	Z5	X6	Y6	Z6	X7	Y7	Z7	X8	Y8	Z8	X9	Y9	Z9	X10	Y10	Z10	X11	Y11	Z11	X12	Y12	Z12	X13	Y13	Z13	X14	Y14	Z14	X15	Y15	Z15	X16	Y16	Z16	X17	Y17	Z17	X18	Y18	Z18	X19	Y19	Z19	X20	Y20	Z20	X21	Y21	Z21	X22	Y22	Z22	X23	Y23	Z23	X24	Y24	Z24	X25	Y25	Z25	X26	Y26	Z26	X27	Y27	Z27	X28	Y28	Z28	X29	Y29	Z29	X30	Y30	Z30	X31	Y31	Z31	X32	Y32	Z32	X33	Y33	Z33	X34	Y34	Z34	X35	Y35	Z35	X36	Y36	Z36	X37	Y37	Z37	X38	Y38	Z38	X39	Y39	Z39	X40	Y40	Z40	X41	Y41	Z41	X42	Y42	Z42	

37	0.433333	894.9938079999999	1095.936032	-453.626706	876.743601	1092.997812	-190.666301	710.694768	1137.048052	-377.594253	705.144133	1132.870886	-295.376501	782.893049	925.995934	-150.390167	813.888411	810.700741	-161.746415	721.484493	711.789204	-198.512891	893.637325	895.36721	-499.316175	999.332925	811.354017	-478.816509	977.486445	684.004267	-460.566806	702.304389	406.997668	-285.390912	648.377836	354.743784	-224.2454	614.96363	265.032808	-297.879363	1037.274583	461.493175	-398.539057	985.089986	388.608095	-456.909515	963.01115	273.537503	-396.0082	441.458556	175.038545	-321.820079	647.983539	65.95531699999999	-339.9846	571.020033	58.290013	-252.839063	816.912776	169.887977	-389.324684	1040.493368	101.179753	-379.312533	966.851779	91.318708	-465.620866	891.385722	1566.822607	-496.103989	931.6898210000001	1572.688957	-160.259143	963.817681	1508.915227	-301.287118	841.271036	1603.991687	-314.977806	920.257583	1477.032542	-77.99618100000001	925.630756	1387.032332	-76.73069599999999	863.472702	1383.613736	-26.899967	863.848372	1252.124626	30.058475	813.4318929999999	1232.355989	-37.198584	832.0081259999999	1500.771349	-569.089626	815.063045	1431.379368	-569.940075	721.436286	1458.991872	-549.0321	641.953798	1321.123032	-612.655746	607.723923	1324.463353	-533.8328310000001	962.580448	1261.705015	-16.861618	1065.064841	1287.041044	-160.087295	1090.995561	1234.590045	-115.723237	728.316725	1275.03717	-598.449505	869.450913	1218.977286	-497.073681	843.014536	1159.500977	-528.42875	
38	0.441667	896.382879	1101.417077	-453.970109	879.2376420000001	1098.128537	-191.042613	712.592531	1142.172793	-377.396283	707.259888	1137.760551	-295.041285	783.399415	930.53386	-150.807416	812.0792269999999	814.843086	-162.229466	717.496175	717.569522	-197.792763	892.259372	898.596073	-498.956629	996.284659	813.858649	-480.109069	973.292087	686.676116	-460.456978	693.344826	412.422809	-283.781437	638.482893	361.17941	-222.480739	605.163381	270.884006	-295.733904	1041.098822	464.064094	-397.404801	994.357358	387.560261	-456.100457	978.401401	271.965325	-394.002136	432.30868	184.387739	-319.949384	633.179234	65.768805	-339.368691	556.141398	60.422705	-252.480613	838.7811380000001	158.949701	-389.055548	1066.092336	105.565584	-372.967318	995.370803	89.22578300000001	-460.582333	891.743113	1572.086599	-496.040087	933.258968	1577.761569	-160.92186	964.633641	1513.955751	-301.855898	842.229787	1608.794469	-314.898331	921.531601	1482.592475	-78.262795	927.124253	1392.917906	-76.56814300000001	864.259204	1389.405671	-27.523892	865.5779199999999	1257.808768	29.776273	814.801865	1237.913577	-37.211091	831.343328	1507.230391	-568.572422	813.484789	1438.145656	-569.629308	720.449826	1466.666579	-546.557556	638.016967	1329.950065	-609.706396	604.714145	1333.301376	-530.038122	963.526517	1269.046341	-18.341927	1063.474813	1297.25494	-162.896938	1091.073507	1244.925798	-118.88031	724.210165	1283.09806	-597.2214310000001	867.012988	1225.922834	-498.690758	839.312473	1166.682401	-529.120178	
39	0.45	897.9384	1106.298282	-454.100314	881.838721	1102.896135	-191.403204	714.592968	1146.899104	-377.30051	709.462046	1142.293388	-294.723807	784.127802	934.756982	-151.110555	810.616001	818.763767	-162.594906	714.238368	723.055352	-197.014473	890.947585	901.933745	-499.39692	993.404456	815.64084	-481.421608	969.151804	688.632146	-460.862174	685.410124	417.695669	-282.132657	629.662247	367.569329	-220.62644	596.283174	276.638393	-293.499332	1044.067706	466.213031	-396.052937	1003.116516	386.444037	-454.983463	992.818941	270.77156	-391.554384	424.109636	194.030047	-317.73693	618.446417	65.697897	-338.766053	541.560059	62.786405	-251.951942	860.24767	148.832397	-388.47302	1090.057562	110.953741	-366.225721	1022.877688	88.46504	-454.894698	892.249908	1576.999168	-496.023284	934.6815759999999	1582.382384	-161.604741	965.351619	1518.573886	-302.356159	843.10787	1613.190506	-314.894204	922.621924	1487.71288	-78.572487	928.296467	1398.35556	-76.375427	864.868715	1394.807689	-27.96351	866.758753	1263.061167	29.435588	815.660376	1243.151128	-37.33197	830.927557	1513.390768	-568.153788	812.217492	1444.484119	-569.321147	719.832123	1473.814218	-544.372442	634.595416	1338.058849	-606.734809	601.766714	1341.562657	-526.268593	963.937886	1275.66021	-19.777342	1061.652827	1306.406596	-165.457451	1090.729475	1254.197901	-121.661972	720.544799	1290.540813	-595.80498	864.941569	1232.296838	-500.040688	836.091214	1173.323097	-529.659319	
40	0.458333	899.601816	1110.581583	-454.205796	884.519726	1107.143825	-191.864992	716.666189	1151.142576	-377.276837	711.737668	1146.378833	-294.47189	785.0277589999999	938.570258	-151.349568	809.546409	822.346684	-162.889319	711.787181	728.094094	-196.253417	890.006652	905.203764	-500.364925	991.078422	816.8294979999999	-482.624032	965.369633	689.8865950000001	-461.693434	678.5962510000001	422.626361	-280.447543	621.945011	373.758196	-218.716853	588.34236	282.177093	-291.174676	1046.272126	467.881825	-394.802632	1011.126435	385.297716	-453.709989	1006.102445	269.906649	-388.831835	416.916447	203.968113	-315.210019	603.789595	65.793373	-338.062129	527.2638020000001	65.525041	-251.248377	881.048052	139.732621	-387.493723	1112.108714	117.034	-359.2357	1048.892691	88.815082	-448.686979	892.850599	1581.438815	-496.078563	935.92952	1586.498777	-162.334152	965.975013	1522.726347	-302.812448	843.913108	1617.101042	-314.987946	923.56843	1492.360156	-78.957014	929.193506	1403.25704	-76.211816	865.402134	1399.769747	-28.238326	867.404824	1267.828733	29.036874	815.923501	1248.054314	-37.544553	830.724667	1519.113826	-567.862487	811.237119	1450.296833	-569.013866	719.527239	1480.34964	-542.48555	631.706205	1345.388985	-603.867113	599.646146	1349.077254	-522.8273840000001	963.856723	1281.479953	-21.136971	1059.680768	1314.415267	-167.722182	1089.939839	1262.258305	-124.189829	717.3515	1297.354462	-594.287731	863.269329	1238.125495	-501.185456	833.386502	1179.370718	-530.064364	
41	0.466667	901.285433	1114.271155	-454.419467	887.211132	1110.820661	-192.467383	718.759914	1154.803035	-377.297267	714.028729	1149.940844	-294.32036	786.098427	941.896337	-151.561423	808.993533	825.45764	-163.146433	710.2532629999999	732.50454	-195.55106	889.59916	908.071732	-501.418027	989.5339719999999	817.486631	-483.623445	962.100389	690.496811	-462.7084	672.9832740000001	427.030233	-278.741438	615.334908	379.555067	-216.816272	581.228088	287.417448	-288.764094	1047.856035	469.008158	-393.929286	1018.071383	384.168932	-452.507223	1018.165415	269.310514	-386.184789	410.666579	214.184439	-312.430983	589.303852	66.223682	-337.145963	513.271882	68.842731	-250.356982	900.818799	131.816974	-386.124142	1132.04399	123.56844	-352.282134	1072.940129	90.002579	-442.311328	893.486002	1585.285421	-496.19039	936.982288	1590.089562	-163.098278	966.505712	1526.377726	-303.23327	844.662656	1620.459314	-315.19443	924.394406	1496.488293	-79.435514	929.860541	1407.546606	-76.126239	865.882604	1404.224342	-28.449176	867.5287970000001	1272.066259	28.577345	815.5752680000001	1252.592307	-37.834411	830.701589	1524.264599	-567.725643	810.5177660000001	1455.492213	-568.729511	719.471016	1486.184418	-540.895164	629.355988	1351.851055	-601.246045	598.814411	1355.670398	-519.924728	963.338633	1286.456246	-22.400303	1057.631877	1321.194189	-169.656882	1088.714198	1268.965181	-126.534899	714.689706	1303.49271	-592.81585	862.037691	1243.408406	-502.212842	831.231772	1184.771106	-530.3547150000001	
42	0.475	902.901516	1117.32425	-454.782762	889.840116	1113.941966	-193.18678	720.804026	1157.786929	-377.356572	716.264329	1152.946537	-294.273839	787.370797	944.66327	-151.765628	809.102694	827.955855	-163.38843	709.745328	736.083625	-194.93179	889.678132	910.286772	-502.281586	988.744054	817.60008	-484.451327	959.330653	690.526109	-463.655361	668.603541	430.751198	-277.055823	609.8572820000001	384.769694	-215.015217	574.736297	292.355166	-286.338976	1048.956576	469.587069	-393.550696	1023.677252	383.079291	-451.573699	1028.96009	268.940528	-383.986783	405.151911	224.60727	-309.478828	575.166975	67.26699499999999	-335.952137	499.674647	72.924842	-249.269387	919.09165	125.182545	-384.392961	1149.694088	130.365075	-345.772702	1094.535667	91.719247	-436.172139	894.11646	1588.464732	-496.297612	937.8313920000001	1593.14443	-163.862083	966.940439	1529.490526	-303.605887	845.366634	1623.210492	-315.505762	925.098315	1500.036293	-80.015878	930.329571	1411.16942	-76.158309	866.246705	1408.092408	-28.742585	867.133508	1275.737642	28.059289	814.681779	1256.703501	-38.198511	830.827226	1528.740171	-567.743616	810.04184	1459.995937	-568.508423	719.600943	1491.228143	-539.588733	627.5444649999999	1357.322865	-598.98064	599.148556	1361.194901	-517.607503	962.434195	1290.555316	-23.557662	1055.567607	1326.662224	-171.256749	1087.119394	1274.209582	-128.674304	712.627908	1308.865999	-591.539364	861.274693	1248.090825	-503.170097	829.6593319999999	1189.467687	-530.548154	
43	0.483333	904.3909640000001	1119.648441	-455.25526	892.361759	1116.521685	-193.986542	722.727815	1160.014913	-377.467513	718.395295	1155.386683	-294.318668	788.891068	946.78372	-151.977946	809.9854340000001	829.716486	-163.641289	710.3393119999999	738.640188	-194.41825	890.032638	911.728305	-502.945365	988.432579	817.1107479999999	-485.279861	956.925458	690.008765	-464.393415	665.438588	433.68563	-275.459196	605.572213	389.267865	-213.394888	568.726236	297.040135	-284.04312	1049.667837	469.689015	-393.633411	1027.81541	382.001256	-450.975282	1038.407586	268.758707	-382.432406	400.077062	235.107616	-306.438311	561.564336	69.202597	-334.501499	486.616092	77.85137400000001	-248.006569	935.338166	119.826517	-382.266857	1164.882096	137.138853	-340.157409	1113.182453	93.61046899999999	-430.571714	894.736625	1590.958516	-496.352135	938.4784540000001	1595.636374	-164.593866	967.273862	1532.016946	-303.908209	846.0213199999999	1625.30977	-315.892044	925.650029	1502.937419	-80.689804	930.610602	1414.093861	-76.327206	866.375367	1411.309981	-29.239557	866.2124240000001	1278.814143	27.496682	813.3316600000001	1260.304459	-38.637888	831.069091	1532.473971	-567.875373	809.803637	1463.749232	-568.397351	719.870154	1495.389382	-538.538877	626.276041	1361.675994	-597.12937	600.11281	1365.543371	-515.803572	961.1734	1293.754758	-24.596698	1053.53468	1330.756727	-172.537892	1085.248719	1277.926233	-130.51997	711.216225	1313.352683	-590.542508	860.987388	1252.073841	-504.039511	828.703712	1193.396138	-530.660226	
44	0.491667	905.7330449999999	1121.139315	-455.729975	894.756293	1118.515431	-194.844886	724.478787	1161.419341	-377.639891	720.397707	1157.223502	-294.436196	790.716212	948.147279	-152.225247	811.6892779999999	830.6526679999999	-163.947019	712.060304	740.043808	-194.019648	890.3929460000001	912.3225200000001	-503.565696	988.181304	815.952329	-486.337499	954.725701	688.959573	-464.910537	663.44704	435.797423	-274.032629	602.5384340000001	393.01196	-211.988647	563.311063	301.478729	-282.034686	1050.044993	469.401926	-394.052767	1030.537784	380.854193	-450.595454	1046.351915	268.672978	-381.421177	395.190462	245.549163	-303.399377	548.597663	72.16812	-332.900972	474.215591	83.56813699999999	-246.625153	949.049513	115.622803	-379.625549	1177.434432	143.415969	-335.813308	1128.415805	95.280959	-425.687814	895.368438	1592.76902	-496.376489	938.930983	1597.509482	-165.279081	967.504577	1533.898003	-304.129721	846.612697	1626.71833	-316.320712	925.993617	1505.132826	-81.42452900000001	930.684719	1416.308744	-76.61048700000001	866.1472199999999	1413.849944	-29.971055	864.755701	1281.26747	26.908419	811.560778	1263.313878	-39.14794	831.4028960000001	1535.418565	-568.055153	809.806543	1466.695083	-568.4368469999999	720.259281	1498.579605	-537.710703	625.569668	1364.812054	-595.725395	601.184628	1368.652345	-514.439199	959.559962	1296.035232	-25.492264	1051.560624	1333.440463	-173.513191	1083.172491	1280.090595	-131.978086	710.47523	1316.822482	-589.820438	861.172711	1255.249992	-504.770964	828.40496	1196.483559	-530.708903	
